<?xml version="1.0" encoding="utf-8"?>
<!-- Generator: Adobe Illustrator 22.0.0, SVG Export Plug-In . SVG Version: 6.00 Build 0)  -->
<svg version="1.1" id="Layer_1" xmlns="http://www.w3.org/2000/svg" xmlns:xlink="http://www.w3.org/1999/xlink" x="0px" y="0px"
	 viewBox="0 0 483.4 482.2" style="enable-background:new 0 0 483.4 482.2;" xml:space="preserve">
<style type="text/css">
	.st0{fill:#FFFFFF;}
</style>
<g>
	<g>
		<rect width="483.4" height="482.2"/>
	</g>
	<g>
		<path class="st0" d="M141.4,139.8c63.5,0,95.3,33.4,95.3,100.3c0,31.9-7.6,56.6-22.7,74.1s-37.4,26.2-66.9,26.2H67.5V139.8H141.4z
			 M141.7,305.2c19.4,0,33.1-5,41.1-15.1c8.1-10.1,12.1-26.7,12.1-50c0-23.7-4.2-40.8-12.7-51.3c-8.8-10.1-24.2-15.2-46.2-15.2
			h-26.8v131.6H141.7z"/>
		<path class="st0" d="M274.5,328.6c-15.1-12.2-23-29-23.5-50.4h40.9c0.6,11.1,4.7,19.6,12.4,25.6c7.7,6,18.2,9,31.6,9
			c11.5,0,20.5-2.2,27.1-6.6c6.6-4.4,9.9-10.6,9.9-18.5c0-6.6-2.3-11.6-7-15.1c-4.7-3.5-12.6-6.6-23.7-9.4l-36.9-9.3
			c-15.8-3.9-27.9-10.7-36.5-20.3c-8.5-9.6-12.8-21.4-12.8-35.5c0-17.5,6.5-32.3,19.4-44.5c12.8-12.2,31.3-18.3,55.5-18.3
			c24.2,0,43.6,6,58.1,18c14.5,12.2,22.4,28.2,23.7,47.9h-40.6c-1.3-10-5.6-17.8-13-23.4c-7.3-5.6-16.6-8.5-27.9-8.5
			c-10.1,0-18.2,2.3-24.2,6.8c-6,4.5-9,10.3-9,17.5c0,11.1,7.8,18.6,23.4,22.5l40,9.9c36.4,8.8,54.7,28.1,54.7,57.8
			c0,19.5-7.1,34.9-21.3,46.2c-14.2,11.3-33.7,16.9-58.5,16.9C310.2,346.9,289.7,340.8,274.5,328.6z"/>
	</g>
</g>
</svg>
